<svg width="20" height="20" viewBox="0 0 20 20" fill="none" xmlns="http://www.w3.org/2000/svg">
<path d="M3.87726 14.2052L3.10591 14.5206L3.10591 14.5206L3.87726 14.2052ZM3.58808 9.53771L2.78395 9.31906L2.78395 9.31906L3.58808 9.53771ZM16.4113 9.53771L17.2154 9.31906L17.2154 9.31906L16.4113 9.53771ZM16.1221 14.2052L15.3507 13.8898L15.3507 13.8898L16.1221 14.2052ZM11.6967 17.3688L11.5686 16.5454L11.5686 16.5454L11.6967 17.3688ZM8.3026 17.3688L8.17447 18.1922L8.17447 18.1922L8.3026 17.3688ZM6.73502 6.48783L6.56974 5.67105L6.73502 6.48783ZM13.2643 6.48783L13.0991 7.30461L13.2643 6.48783ZM7.67867 17.2717L7.8068 16.4483L7.8068 16.4483L7.67867 17.2717ZM3.95466 14.3945L4.72601 14.0791L4.72601 14.0791L3.95466 14.3945ZM12.3207 17.2717L12.4488 18.0951L12.4488 18.0951L12.3207 17.2717ZM16.0447 14.3945L16.816 14.7099L16.816 14.7099L16.0447 14.3945ZM16.3475 9.30316L15.5434 9.52182L15.5434 9.52182L16.3475 9.30316ZM3.65186 9.30316L4.456 9.52182L4.456 9.52182L3.65186 9.30316ZM12.6476 6.68814L11.8847 6.35289L11.8847 6.35289L12.6476 6.68814ZM11.7072 6.75685C11.522 7.1782 11.7135 7.66987 12.1348 7.85503C12.5562 8.04019 13.0479 7.84872 13.233 7.42737L11.7072 6.75685ZM7.35174 6.68814L8.11466 6.35289L8.11466 6.35289L7.35174 6.68814ZM6.76634 7.42737C6.95149 7.84872 7.44317 8.04019 7.86451 7.85503C8.28586 7.66987 8.47734 7.1782 8.29218 6.75685L6.76634 7.42737ZM9.36878 2.56183L9.50898 3.38329L9.50899 3.38329L9.36878 2.56183ZM9.46667 2.54513L9.32647 1.72367L9.32647 1.72367L9.46667 2.54513ZM10.5327 2.54513L10.3925 3.36658L10.3925 3.36658L10.5327 2.54513ZM10.6306 2.56183L10.7708 1.74038L10.7708 1.74038L10.6306 2.56183ZM12.8541 4.62363L13.668 4.4448L12.8541 4.62363ZM7.14522 4.62363L7.95914 4.80247L7.95914 4.80247L7.14522 4.62363ZM12.1925 16.4483L11.5686 16.5454L11.8249 18.1922L12.4488 18.0951L12.1925 16.4483ZM8.43074 16.5454L7.8068 16.4483L7.55053 18.0951L8.17447 18.1922L8.43074 16.5454ZM15.5434 9.52182L15.6071 9.75636L17.2154 9.31906L17.1516 9.08451L15.5434 9.52182ZM15.3507 13.8898L15.2733 14.0791L16.816 14.7099L16.8934 14.5206L15.3507 13.8898ZM4.72601 14.0791L4.6486 13.8898L3.10591 14.5206L3.18332 14.7099L4.72601 14.0791ZM4.39222 9.75637L4.456 9.52182L2.84772 9.08451L2.78395 9.31906L4.39222 9.75637ZM4.6486 13.8898C4.10932 12.5709 4.02006 11.1251 4.39222 9.75637L2.78395 9.31906C2.31531 11.0426 2.42845 12.8637 3.10591 14.5206L4.6486 13.8898ZM15.6071 9.75636C15.9793 11.1251 15.89 12.5709 15.3507 13.8898L16.8934 14.5206C17.5709 12.8637 17.684 11.0426 17.2154 9.31906L15.6071 9.75636ZM11.5686 16.5454C10.5295 16.7071 9.4698 16.7071 8.43074 16.5454L8.17447 18.1922C9.38335 18.3804 10.616 18.3804 11.8249 18.1922L11.5686 16.5454ZM6.9003 7.30461C8.9438 6.8911 11.0556 6.8911 13.0991 7.30461L13.4296 5.67105C11.168 5.2134 8.8314 5.2134 6.56974 5.67105L6.9003 7.30461ZM7.8068 16.4483C6.39557 16.2287 5.23219 15.3171 4.72601 14.0791L3.18332 14.7099C3.92084 16.5136 5.58929 17.7899 7.55053 18.0951L7.8068 16.4483ZM12.4488 18.0951C14.41 17.7899 16.0785 16.5136 16.816 14.7099L15.2733 14.0791C14.7671 15.3171 13.6038 16.2287 12.1925 16.4483L12.4488 18.0951ZM13.0991 7.30461C14.3091 7.54948 15.2439 8.42042 15.5434 9.52182L17.1516 9.08451C16.6783 7.34374 15.2254 6.03443 13.4296 5.67105L13.0991 7.30461ZM6.56974 5.67105C4.77399 6.03443 3.32106 7.34375 2.84772 9.08451L4.456 9.52182C4.75548 8.42043 5.69021 7.54948 6.9003 7.30461L6.56974 5.67105ZM11.8847 6.35289L11.7072 6.75685L13.233 7.42737L13.4105 7.0234L11.8847 6.35289ZM6.58882 7.0234L6.76634 7.42737L8.29218 6.75685L8.11466 6.35289L6.58882 7.0234ZM9.50899 3.38329L9.60687 3.36658L9.32647 1.72367L9.22858 1.74038L9.50899 3.38329ZM10.3925 3.36658L10.4904 3.38329L10.7708 1.74038L10.6729 1.72367L10.3925 3.36658ZM12.0402 4.80247C12.1542 5.32134 12.1006 5.86148 11.8847 6.35289L13.4105 7.0234C13.7678 6.21049 13.8582 5.31043 13.668 4.4448L12.0402 4.80247ZM6.33131 4.4448C6.14111 5.31043 6.2316 6.21049 6.58882 7.0234L8.11466 6.35289C7.89872 5.86148 7.84514 5.32134 7.95914 4.80247L6.33131 4.4448ZM9.60687 3.36658C9.86662 3.32225 10.1327 3.32225 10.3925 3.36658L10.6729 1.72367C10.2275 1.64766 9.77181 1.64766 9.32647 1.72367L9.60687 3.36658ZM13.668 4.4448C13.3591 3.03889 12.1981 1.98398 10.7708 1.74038L10.4904 3.38329C11.2864 3.51915 11.885 4.09586 12.0402 4.80247L13.668 4.4448ZM7.95914 4.80247C8.1144 4.09586 8.71294 3.51915 9.50898 3.38329L9.22858 1.74038C7.80129 1.98398 6.64021 3.03889 6.33131 4.4448L7.95914 4.80247Z" fill="white"/>
</svg>
