<svg width="20" height="20" viewBox="0 0 20 20" fill="none" xmlns="http://www.w3.org/2000/svg">
<path d="M2.74751 4.3615C2.93536 3.56066 3.56066 2.93536 4.3615 2.74751V2.74751C5.05553 2.58471 5.77781 2.58471 6.47184 2.74751V2.74751C7.27267 2.93536 7.89797 3.56066 8.08583 4.3615V4.3615C8.24862 5.05553 8.24862 5.77781 8.08583 6.47183V6.47183C7.89797 7.27267 7.27267 7.89797 6.47183 8.08583V8.08583C5.77781 8.24862 5.05553 8.24862 4.3615 8.08583V8.08583C3.56066 7.89797 2.93536 7.27267 2.74751 6.47184V6.47184C2.58471 5.77781 2.58471 5.05553 2.74751 4.3615V4.3615Z" stroke="white" stroke-width="1.66667"/>
<path d="M2.74751 13.5282C2.93536 12.7273 3.56066 12.102 4.3615 11.9142V11.9142C5.05553 11.7514 5.77781 11.7514 6.47184 11.9142V11.9142C7.27267 12.102 7.89797 12.7273 8.08583 13.5282V13.5282C8.24862 14.2222 8.24862 14.9445 8.08583 15.6385V15.6385C7.89797 16.4394 7.27267 17.0647 6.47183 17.2525V17.2525C5.77781 17.4153 5.05553 17.4153 4.3615 17.2525V17.2525C3.56066 17.0647 2.93536 16.4394 2.74751 15.6385V15.6385C2.58471 14.9445 2.58471 14.2222 2.74751 13.5282V13.5282Z" stroke="white" stroke-width="1.66667"/>
<path d="M11.9145 4.3615C12.1024 3.56066 12.7277 2.93536 13.5285 2.74751V2.74751C14.2225 2.58471 14.9448 2.58471 15.6388 2.74751V2.74751C16.4397 2.93536 17.065 3.56066 17.2528 4.3615V4.3615C17.4156 5.05553 17.4156 5.77781 17.2528 6.47183V6.47183C17.065 7.27267 16.4397 7.89797 15.6388 8.08583V8.08583C14.9448 8.24862 14.2225 8.24862 13.5285 8.08583V8.08583C12.7277 7.89797 12.1024 7.27267 11.9145 6.47184V6.47184C11.7517 5.77781 11.7517 5.05553 11.9145 4.3615V4.3615Z" stroke="white" stroke-width="1.66667"/>
<path d="M11.9145 13.5282C12.1024 12.7273 12.7277 12.102 13.5285 11.9142V11.9142C14.2225 11.7514 14.9448 11.7514 15.6388 11.9142V11.9142C16.4397 12.102 17.065 12.7273 17.2528 13.5282V13.5282C17.4156 14.2222 17.4156 14.9445 17.2528 15.6385V15.6385C17.065 16.4394 16.4397 17.0647 15.6388 17.2525V17.2525C14.9448 17.4153 14.2225 17.4153 13.5285 17.2525V17.2525C12.7277 17.0647 12.1024 16.4394 11.9145 15.6385V15.6385C11.7517 14.9445 11.7517 14.2222 11.9145 13.5282V13.5282Z" stroke="white" stroke-width="1.66667"/>
</svg>
