<svg width="20" height="20" viewBox="0 0 20 20" fill="none" xmlns="http://www.w3.org/2000/svg">
<path d="M2.89315 11.2954L3.69364 11.0637L3.69364 11.0637L2.89315 11.2954ZM2.89315 5.75545L2.09266 5.5238L2.09266 5.5238L2.89315 5.75545ZM17.1069 5.75545L17.9073 5.5238L17.9073 5.5238L17.1069 5.75545ZM17.1069 11.2954L16.3064 11.0637L16.3064 11.0637L17.1069 11.2954ZM14.0123 14.1729L13.8567 13.3543L14.0123 14.1729ZM5.98768 14.1729L6.14334 13.3543L5.98768 14.1729ZM5.98768 2.87787L5.83202 2.0592L5.98768 2.87787ZM14.0123 2.87787L14.168 2.0592L14.0123 2.87787ZM2.93338 11.4344L2.13289 11.666L2.13289 11.666L2.93338 11.4344ZM17.0666 11.4344L17.8671 11.666L17.8671 11.666L17.0666 11.4344ZM17.0666 5.61645L16.2661 5.84809L16.2661 5.84809L17.0666 5.61645ZM2.93338 5.61644L3.73387 5.84809L3.73387 5.84809L2.93338 5.61644ZM10.8333 14.9358C10.8333 14.4756 10.4602 14.1025 10 14.1025C9.53976 14.1025 9.16667 14.4756 9.16667 14.9358H10.8333ZM9.16667 17.5C9.16667 17.9602 9.53976 18.3333 10 18.3333C10.4602 18.3333 10.8333 17.9602 10.8333 17.5H9.16667ZM7.80321 16.6667C7.34298 16.6667 6.96988 17.0398 6.96988 17.5C6.96988 17.9602 7.34298 18.3333 7.80321 18.3333V16.6667ZM12.1968 18.3333C12.657 18.3333 13.0301 17.9602 13.0301 17.5C13.0301 17.0398 12.657 16.6667 12.1968 16.6667V18.3333ZM16.2661 5.84809L16.3064 5.9871L17.9073 5.5238L17.8671 5.3848L16.2661 5.84809ZM16.3064 11.0637L16.2661 11.2027L17.8671 11.666L17.9073 11.527L16.3064 11.0637ZM3.73386 11.2027L3.69364 11.0637L2.09266 11.527L2.13289 11.666L3.73386 11.2027ZM3.69364 5.98709L3.73387 5.84809L2.13289 5.3848L2.09266 5.5238L3.69364 5.98709ZM3.69364 11.0637C3.21323 9.4036 3.21323 7.64721 3.69364 5.98709L2.09266 5.5238C1.52467 7.48657 1.52467 9.56424 2.09266 11.527L3.69364 11.0637ZM16.3064 5.9871C16.7868 7.64721 16.7868 9.4036 16.3064 11.0637L17.9073 11.527C18.4753 9.56424 18.4753 7.48657 17.9073 5.5238L16.3064 5.9871ZM13.8567 13.3543C11.3097 13.8385 8.69029 13.8385 6.14334 13.3543L5.83203 14.9916C8.58468 15.515 11.4153 15.515 14.168 14.9916L13.8567 13.3543ZM6.14334 3.69654C8.69029 3.21227 11.3097 3.21227 13.8567 3.69653L14.168 2.0592C11.4153 1.53582 8.58468 1.53582 5.83202 2.0592L6.14334 3.69654ZM6.14334 13.3543C4.97413 13.132 4.04913 12.2922 3.73386 11.2027L2.13289 11.666C2.62809 13.3773 4.0656 14.6557 5.83203 14.9916L6.14334 13.3543ZM14.168 14.9916C15.9344 14.6557 17.3719 13.3773 17.8671 11.666L16.2661 11.2027C15.9509 12.2922 15.0259 13.132 13.8567 13.3543L14.168 14.9916ZM13.8567 3.69653C15.0259 3.91885 15.9509 4.75864 16.2661 5.84809L17.8671 5.3848C17.3719 3.67355 15.9344 2.39506 14.168 2.0592L13.8567 3.69653ZM5.83202 2.0592C4.0656 2.39506 2.62809 3.67355 2.13289 5.3848L3.73387 5.84809C4.04913 4.75864 4.97413 3.91885 6.14334 3.69654L5.83202 2.0592ZM9.16667 14.9358V17.5H10.8333V14.9358H9.16667ZM7.80321 18.3333H12.1968V16.6667H7.80321V18.3333Z" fill="white"/>
<path d="M6.66699 9.375L8.38269 8.02389C8.69586 7.77727 8.85245 7.65396 9.0256 7.67595C9.19875 7.69794 9.31954 7.85647 9.56112 8.17355L10.4395 9.32645C10.6811 9.64353 10.8019 9.80206 10.9751 9.82405C11.1482 9.84604 11.3048 9.72273 11.618 9.47611L13.3337 8.125" stroke="white" stroke-width="1.66667" stroke-linecap="round"/>
</svg>
