<svg width="111" height="31" viewBox="0 0 111 31" fill="none" xmlns="http://www.w3.org/2000/svg">
<path d="M18.18 0.76V6.04H12.54V22H5.88V6.04H0.3V0.76H18.18ZM20.4363 13.54C20.4363 11.76 20.7363 10.22 21.3363 8.92C21.9563 7.6 22.7963 6.6 23.8563 5.92C24.9163 5.22 26.1063 4.87 27.4263 4.87C28.5263 4.87 29.4763 5.1 30.2763 5.56C31.0763 6 31.6863 6.61 32.1063 7.39V5.08H38.7363V22H32.1063V19.69C31.6863 20.47 31.0763 21.09 30.2763 21.55C29.4763 21.99 28.5263 22.21 27.4263 22.21C26.1063 22.21 24.9163 21.87 23.8563 21.19C22.7963 20.49 21.9563 19.49 21.3363 18.19C20.7363 16.87 20.4363 15.32 20.4363 13.54ZM32.1063 13.54C32.1063 12.64 31.8763 11.94 31.4163 11.44C30.9563 10.94 30.3663 10.69 29.6463 10.69C28.9263 10.69 28.3363 10.94 27.8763 11.44C27.4163 11.94 27.1863 12.64 27.1863 13.54C27.1863 14.44 27.4163 15.14 27.8763 15.64C28.3363 16.14 28.9263 16.39 29.6463 16.39C30.3663 16.39 30.9563 16.14 31.4163 15.64C31.8763 15.14 32.1063 14.44 32.1063 13.54ZM49.737 8.2C50.417 7.22 51.247 6.44 52.227 5.86C53.207 5.26 54.227 4.96 55.287 4.96V12.07H53.397C52.137 12.07 51.207 12.29 50.607 12.73C50.027 13.17 49.737 13.95 49.737 15.07V22H43.077V5.08H49.737V8.2ZM64.5209 4.87C65.6209 4.87 66.5709 5.1 67.3709 5.56C68.1709 6 68.7809 6.61 69.2009 7.39V5.08H75.8309V21.7C75.8309 23.28 75.5409 24.72 74.9609 26.02C74.3809 27.32 73.4409 28.36 72.1409 29.14C70.8609 29.92 69.2109 30.31 67.1909 30.31C64.4709 30.31 62.3109 29.67 60.7109 28.39C59.1309 27.13 58.2309 25.41 58.0109 23.23H64.5509C64.7309 24.11 65.4509 24.55 66.7109 24.55C67.4909 24.55 68.1009 24.35 68.5409 23.95C68.9809 23.55 69.2009 22.8 69.2009 21.7V19.69C68.7809 20.47 68.1709 21.09 67.3709 21.55C66.5709 21.99 65.6209 22.21 64.5209 22.21C63.2009 22.21 62.0109 21.87 60.9509 21.19C59.8909 20.49 59.0509 19.49 58.4309 18.19C57.8309 16.87 57.5309 15.32 57.5309 13.54C57.5309 11.76 57.8309 10.22 58.4309 8.92C59.0509 7.6 59.8909 6.6 60.9509 5.92C62.0109 5.22 63.2009 4.87 64.5209 4.87ZM69.2009 13.54C69.2009 12.64 68.9709 11.94 68.5109 11.44C68.0509 10.94 67.4609 10.69 66.7409 10.69C66.0209 10.69 65.4309 10.94 64.9709 11.44C64.5109 11.94 64.2809 12.64 64.2809 13.54C64.2809 14.44 64.5109 15.14 64.9709 15.64C65.4309 16.14 66.0209 16.39 66.7409 16.39C67.4609 16.39 68.0509 16.14 68.5109 15.64C68.9709 15.14 69.2009 14.44 69.2009 13.54ZM96.5515 13.39C96.5515 13.85 96.5215 14.29 96.4615 14.71H85.7515C85.8515 16.17 86.4615 16.9 87.5815 16.9C88.3015 16.9 88.8215 16.57 89.1415 15.91H96.1915C95.9515 17.11 95.4415 18.19 94.6615 19.15C93.9015 20.09 92.9315 20.84 91.7515 21.4C90.5915 21.94 89.3115 22.21 87.9115 22.21C86.2315 22.21 84.7315 21.86 83.4115 21.16C82.1115 20.46 81.0915 19.46 80.3515 18.16C79.6315 16.84 79.2715 15.3 79.2715 13.54C79.2715 11.78 79.6315 10.25 80.3515 8.95C81.0915 7.63 82.1115 6.62 83.4115 5.92C84.7315 5.22 86.2315 4.87 87.9115 4.87C89.5915 4.87 91.0815 5.22 92.3815 5.92C93.7015 6.6 94.7215 7.58 95.4415 8.86C96.1815 10.14 96.5515 11.65 96.5515 13.39ZM89.8015 11.8C89.8015 11.24 89.6215 10.82 89.2615 10.54C88.9015 10.24 88.4515 10.09 87.9115 10.09C86.7315 10.09 86.0415 10.66 85.8415 11.8H89.8015ZM110.538 16.33V22H108.018C103.378 22 101.058 19.69 101.058 15.07V10.63H98.9578V5.08H101.058V0.999999H107.718V5.08H110.478V10.63H107.718V15.19C107.718 15.59 107.808 15.88 107.988 16.06C108.188 16.24 108.508 16.33 108.948 16.33H110.538Z" fill="#F9F9F9"/>
</svg>
