<svg width="20" height="20" viewBox="0 0 20 20" fill="none" xmlns="http://www.w3.org/2000/svg">
<path d="M2.5 15.3609C2.5 13.6924 3.71238 12.2712 5.36003 12.0082L5.50844 11.9845C6.8278 11.774 8.1722 11.774 9.49156 11.9845L9.63997 12.0082C11.2876 12.2712 12.5 13.6924 12.5 15.3609C12.5 16.0821 11.9154 16.6667 11.1942 16.6667H3.80581C3.08463 16.6667 2.5 16.0821 2.5 15.3609Z" stroke="white" stroke-width="1.66667"/>
<path d="M10.4167 6.25004C10.4167 7.86087 9.11083 9.16671 7.5 9.16671C5.88917 9.16671 4.58333 7.86087 4.58333 6.25004C4.58333 4.63921 5.88917 3.33337 7.5 3.33337C9.11083 3.33337 10.4167 4.63921 10.4167 6.25004Z" stroke="white" stroke-width="1.66667"/>
<path d="M12.5 9.16671C14.1108 9.16671 15.4167 7.86087 15.4167 6.25004C15.4167 4.63921 14.1108 3.33337 12.5 3.33337M14.4916 16.6667H16.1942C16.9154 16.6667 17.5 16.0821 17.5 15.3609C17.5 13.6924 16.2876 12.2712 14.64 12.0082V12.0082C14.5412 11.9925 14.4411 11.9845 14.3411 11.9845C14.0746 11.9845 13.9919 11.9845 13.5343 11.9845" stroke="white" stroke-width="1.66667" stroke-linecap="round"/>
</svg>
