<svg width="20" height="20" viewBox="0 0 20 20" fill="none" xmlns="http://www.w3.org/2000/svg">
<path d="M4.16699 15.9262C4.16699 13.9153 5.58143 12.2025 7.50369 11.8855L7.67684 11.857C9.21609 11.6032 10.7846 11.6032 12.3238 11.857L12.497 11.8855C14.4192 12.2025 15.8337 13.9153 15.8337 15.9262C15.8337 16.7954 15.1516 17.5 14.3102 17.5H5.69043C4.84906 17.5 4.16699 16.7954 4.16699 15.9262Z" stroke="white" stroke-width="1.66667"/>
<path d="M13.4031 5.78125C13.4031 7.59343 11.8796 9.0625 10.0003 9.0625C8.12104 9.0625 6.59756 7.59343 6.59756 5.78125C6.59756 3.96907 8.12104 2.5 10.0003 2.5C11.8796 2.5 13.4031 3.96907 13.4031 5.78125Z" stroke="white" stroke-width="1.66667"/>
</svg>
